<svg width="24" height="24" viewBox="0 0 24 24" fill="none" xmlns="http://www.w3.org/2000/svg">
<g clip-path="url(#clip0_459_70)">
<path d="M10.719 16.281L6.969 12.531C6.89916 12.4613 6.84374 12.3786 6.80593 12.2874C6.76812 12.1963 6.74866 12.0987 6.74866 12C6.74866 11.9013 6.76812 11.8037 6.80593 11.7125C6.84374 11.6214 6.89916 11.5387 6.969 11.469L10.719 7.719C10.8598 7.57817 11.0508 7.49905 11.25 7.49905C11.4492 7.49905 11.6402 7.57817 11.781 7.719C11.9218 7.85983 12.0009 8.05084 12.0009 8.25C12.0009 8.44916 11.9218 8.64017 11.781 8.781L9.3105 11.25H16.5C16.6989 11.25 16.8897 11.329 17.0303 11.4697C17.171 11.6103 17.25 11.8011 17.25 12C17.25 12.1989 17.171 12.3897 17.0303 12.5303C16.8897 12.671 16.6989 12.75 16.5 12.75H9.3105L11.781 15.219C11.9218 15.3598 12.0009 15.5508 12.0009 15.75C12.0009 15.9492 11.9218 16.1402 11.781 16.281C11.6402 16.4218 11.4492 16.5009 11.25 16.5009C11.0508 16.5009 10.8598 16.4218 10.719 16.281ZM1.5 12C1.5 14.7848 2.60625 17.4555 4.57538 19.4246C6.54451 21.3938 9.21523 22.5 12 22.5C14.7848 22.5 17.4555 21.3938 19.4246 19.4246C21.3938 17.4555 22.5 14.7848 22.5 12C22.5 9.21523 21.3938 6.54451 19.4246 4.57538C17.4555 2.60625 14.7848 1.5 12 1.5C9.21523 1.5 6.54451 2.60625 4.57538 4.57538C2.60625 6.54451 1.5 9.21523 1.5 12ZM12 21C10.8181 21 9.64778 20.7672 8.55585 20.3149C7.46392 19.8626 6.47177 19.1997 5.63604 18.364C4.80031 17.5282 4.13738 16.5361 3.68508 15.4442C3.23279 14.3522 3 13.1819 3 12C3 10.8181 3.23279 9.64778 3.68508 8.55585C4.13738 7.46392 4.80031 6.47177 5.63604 5.63604C6.47177 4.80031 7.46392 4.13738 8.55585 3.68508C9.64778 3.23279 10.8181 3 12 3C14.3869 3 16.6761 3.94821 18.364 5.63604C20.0518 7.32387 21 9.61305 21 12C21 14.3869 20.0518 16.6761 18.364 18.364C16.6761 20.0518 14.3869 21 12 21Z" fill="#FAFFFD"/>
</g>
<defs>
<clipPath id="clip0_459_70">
<rect width="24" height="24" fill="white"/>
</clipPath>
</defs>
</svg>
