<svg width="24" height="24" viewBox="0 0 24 24" fill="none" xmlns="http://www.w3.org/2000/svg">
<g clip-path="url(#clip0_574_2329)">
<path d="M20.2148 3.10985C19.8866 2.7647 19.4926 2.48872 19.0561 2.29816C18.6196 2.10761 18.1494 2.00633 17.6731 2.00029C17.1968 1.99425 16.7242 2.08357 16.283 2.263C15.8418 2.44243 15.4409 2.70834 15.104 3.04505L3.85404 14.2951C3.46093 14.6882 3.18788 15.1852 3.06684 15.7279L2.01444 20.4679C1.9924 20.5665 1.99563 20.6691 2.02383 20.7661C2.05203 20.8632 2.10428 20.9515 2.17574 21.023C2.24719 21.0944 2.33554 21.1467 2.43258 21.1749C2.52962 21.2031 2.63222 21.2063 2.73084 21.1843L7.44204 20.1367C8.00339 20.0129 8.51738 19.7305 8.92284 19.3231L13.7972 14.4487C13.5865 14.0396 13.4562 13.594 13.4132 13.1359L8.07324 18.4747C7.82944 18.7206 7.51987 18.891 7.18164 18.9655L3.38964 19.8079L4.23924 15.9883C4.31004 15.6679 4.47084 15.3751 4.70364 15.1435L14.2988 5.54826L17.6504 8.89865L17.336 9.21305C17.8052 9.25745 18.248 9.39066 18.6488 9.59706L20.1524 8.09345C20.8107 7.43494 21.1856 6.54534 21.1972 5.61435C21.2089 4.68335 20.8564 3.78464 20.2148 3.10985ZM15.9524 3.89345C16.398 3.45426 16.9991 3.20904 17.6247 3.21129C18.2503 3.21353 18.8497 3.46305 19.2921 3.90543C19.7344 4.34781 19.984 4.94716 19.9862 5.57277C19.9885 6.19839 19.7432 6.79952 19.304 7.24506L18.4988 8.05026L15.1472 4.69985L15.9524 3.89345ZM19.3976 12.7975C19.3976 13.434 19.1448 14.0444 18.6947 14.4945C18.2446 14.9446 17.6342 15.1975 16.9976 15.1975C16.3611 15.1975 15.7507 14.9446 15.3006 14.4945C14.8505 14.0444 14.5976 13.434 14.5976 12.7975C14.5976 12.1609 14.8505 11.5505 15.3006 11.1004C15.7507 10.6503 16.3611 10.3975 16.9976 10.3975C17.6342 10.3975 18.2446 10.6503 18.6947 11.1004C19.1448 11.5505 19.3976 12.1609 19.3976 12.7975ZM21.1976 18.1975C21.1976 19.6915 19.9976 21.1975 16.9976 21.1975C13.9976 21.1975 12.7976 19.6975 12.7976 18.1975C12.7976 17.7201 12.9873 17.2622 13.3248 16.9247C13.6624 16.5871 14.1202 16.3975 14.5976 16.3975H19.3976C19.875 16.3975 20.3329 16.5871 20.6704 16.9247C21.008 17.2622 21.1976 17.7201 21.1976 18.1975Z" fill="#858585"/>
</g>
<defs>
<clipPath id="clip0_574_2329">
<rect width="24" height="24" fill="white"/>
</clipPath>
</defs>
</svg>
