<svg width="22" height="22" viewBox="0 0 22 22" fill="none" xmlns="http://www.w3.org/2000/svg">
<path d="M11 3.5C11 4.16304 11.2634 4.79893 11.7322 5.26777C12.2011 5.73661 12.837 6 13.5 6C14.163 6 14.7989 5.73661 15.2678 5.26777C15.7366 4.79893 16 4.16304 16 3.5M11 3.5C11 2.83696 11.2634 2.20107 11.7322 1.73223C12.2011 1.26339 12.837 1 13.5 1C14.163 1 14.7989 1.26339 15.2678 1.73223C15.7366 2.20107 16 2.83696 16 3.5M11 3.5H1M16 3.5H21M3.5 11C3.5 11.663 3.76339 12.2989 4.23223 12.7678C4.70107 13.2366 5.33696 13.5 6 13.5C6.66304 13.5 7.29893 13.2366 7.76777 12.7678C8.23661 12.2989 8.5 11.663 8.5 11M3.5 11C3.5 10.337 3.76339 9.70107 4.23223 9.23223C4.70107 8.76339 5.33696 8.5 6 8.5C6.66304 8.5 7.29893 8.76339 7.76777 9.23223C8.23661 9.70107 8.5 10.337 8.5 11M3.5 11H1M8.5 11H21M14.75 18.5C14.75 19.163 15.0134 19.7989 15.4822 20.2678C15.9511 20.7366 16.587 21 17.25 21C17.913 21 18.5489 20.7366 19.0178 20.2678C19.4866 19.7989 19.75 19.163 19.75 18.5M14.75 18.5C14.75 17.837 15.0134 17.2011 15.4822 16.7322C15.9511 16.2634 16.587 16 17.25 16C17.913 16 18.5489 16.2634 19.0178 16.7322C19.4866 17.2011 19.75 17.837 19.75 18.5M14.75 18.5H1M19.75 18.5H21" stroke="#248078" stroke-linecap="round" stroke-linejoin="round"/>
</svg>
