<svg width="24" height="24" viewBox="0 0 24 24" fill="none" xmlns="http://www.w3.org/2000/svg">
<g clip-path="url(#clip0_679_2022)">
<path d="M6.9001 3.6H17.1001C17.9753 3.6 18.8147 3.94768 19.4336 4.56655C20.0524 5.18542 20.4001 6.02478 20.4001 6.9V10.8036C19.9909 10.8228 19.5841 10.914 19.2001 11.0784V6.9C19.2001 6.34304 18.9788 5.8089 18.585 5.41507C18.1912 5.02125 17.6571 4.8 17.1001 4.8H6.9001C6.34314 4.8 5.809 5.02125 5.41517 5.41507C5.02135 5.8089 4.8001 6.34304 4.8001 6.9V17.1C4.8001 18.2592 5.7409 19.2 6.9001 19.2H11.3701C11.3512 19.2615 11.334 19.3236 11.3185 19.386L11.0641 20.4H6.9001C6.02488 20.4 5.18552 20.0523 4.56665 19.4335C3.94778 18.8146 3.6001 17.9752 3.6001 17.1V6.9C3.6001 6.02478 3.94778 5.18542 4.56665 4.56655C5.18552 3.94768 6.02488 3.6 6.9001 3.6ZM11.4001 15.6H14.3317L13.1317 16.8H11.4001C11.241 16.8 11.0884 16.7368 10.9758 16.6243C10.8633 16.5117 10.8001 16.3591 10.8001 16.2C10.8001 16.0409 10.8633 15.8883 10.9758 15.7757C11.0884 15.6632 11.241 15.6 11.4001 15.6ZM9.0001 8.7C9.0001 8.93869 8.90528 9.16761 8.73649 9.33639C8.56771 9.50518 8.33879 9.6 8.1001 9.6C7.8614 9.6 7.63248 9.50518 7.4637 9.33639C7.29492 9.16761 7.2001 8.93869 7.2001 8.7C7.2001 8.4613 7.29492 8.23239 7.4637 8.0636C7.63248 7.89482 7.8614 7.8 8.1001 7.8C8.33879 7.8 8.56771 7.89482 8.73649 8.0636C8.90528 8.23239 9.0001 8.4613 9.0001 8.7ZM8.1001 13.2C8.33879 13.2 8.56771 13.1052 8.73649 12.9364C8.90528 12.7676 9.0001 12.5387 9.0001 12.3C9.0001 12.0613 8.90528 11.8324 8.73649 11.6636C8.56771 11.4948 8.33879 11.4 8.1001 11.4C7.8614 11.4 7.63248 11.4948 7.4637 11.6636C7.29492 11.8324 7.2001 12.0613 7.2001 12.3C7.2001 12.5387 7.29492 12.7676 7.4637 12.9364C7.63248 13.1052 7.8614 13.2 8.1001 13.2ZM8.1001 16.8C8.33879 16.8 8.56771 16.7052 8.73649 16.5364C8.90528 16.3676 9.0001 16.1387 9.0001 15.9C9.0001 15.6613 8.90528 15.4324 8.73649 15.2636C8.56771 15.0948 8.33879 15 8.1001 15C7.8614 15 7.63248 15.0948 7.4637 15.2636C7.29492 15.4324 7.2001 15.6613 7.2001 15.9C7.2001 16.1387 7.29492 16.3676 7.4637 16.5364C7.63248 16.7052 7.8614 16.8 8.1001 16.8ZM11.4001 8.4C11.241 8.4 11.0884 8.46321 10.9758 8.57573C10.8633 8.68826 10.8001 8.84087 10.8001 9C10.8001 9.15913 10.8633 9.31174 10.9758 9.42426C11.0884 9.53678 11.241 9.6 11.4001 9.6H16.2001C16.3592 9.6 16.5118 9.53678 16.6244 9.42426C16.7369 9.31174 16.8001 9.15913 16.8001 9C16.8001 8.84087 16.7369 8.68826 16.6244 8.57573C16.5118 8.46321 16.3592 8.4 16.2001 8.4H11.4001ZM11.4001 12C11.241 12 11.0884 12.0632 10.9758 12.1757C10.8633 12.2883 10.8001 12.4409 10.8001 12.6C10.8001 12.7591 10.8633 12.9117 10.9758 13.0243C11.0884 13.1368 11.241 13.2 11.4001 13.2H16.2001C16.3592 13.2 16.5118 13.1368 16.6244 13.0243C16.7369 12.9117 16.8001 12.7591 16.8001 12.6C16.8001 12.4409 16.7369 12.2883 16.6244 12.1757C16.5118 12.0632 16.3592 12 16.2001 12H11.4001ZM13.1761 18.4524L18.9721 12.6564C19.1806 12.4481 19.4281 12.2828 19.7004 12.1702C19.9727 12.0575 20.2646 11.9995 20.5593 11.9996C20.8541 11.9998 21.1459 12.0579 21.4182 12.1708C21.6904 12.2837 21.9378 12.4491 22.1461 12.6576C22.3544 12.8661 22.5197 13.1136 22.6323 13.3859C22.745 13.6582 22.803 13.9501 22.8029 14.2448C22.8027 14.5396 22.7446 14.8314 22.6317 15.1037C22.5188 15.3759 22.3534 15.6233 22.1449 15.8316L16.3489 21.6264C16.0111 21.9641 15.5881 22.2038 15.1249 22.32L13.3273 22.7688C13.1486 22.8133 12.9613 22.8109 12.7838 22.7617C12.6063 22.7125 12.4445 22.6182 12.3142 22.488C12.1839 22.3578 12.0895 22.1962 12.0401 22.0187C11.9907 21.8412 11.9881 21.654 12.0325 21.4752L12.4825 19.6776C12.5987 19.2144 12.8384 18.7914 13.1761 18.4536" fill="#FAFFFD"/>
</g>
<defs>
<clipPath id="clip0_679_2022">
<rect width="24" height="24" fill="white"/>
</clipPath>
</defs>
</svg>
