<svg width="43" height="42" viewBox="0 0 43 42" fill="none" xmlns="http://www.w3.org/2000/svg">
<path d="M19.6045 10.7695C20.6932 9.82925 22.3068 9.82925 23.3955 10.7695L31.3955 17.6787C32.0332 18.2296 32.4004 19.0303 32.4004 19.873V30C32.4004 31.6016 31.1016 32.9004 29.5 32.9004H27C25.3984 32.9004 24.0996 31.6016 24.0996 30V27.4053C24.0996 26.797 23.8865 26.2075 23.4971 25.7402C22.4576 24.4934 20.5424 24.4934 19.5029 25.7402C19.1135 26.2075 18.9004 26.797 18.9004 27.4053V30C18.9004 31.6016 17.6016 32.9004 16 32.9004H13.5C11.8984 32.9004 10.5996 31.6016 10.5996 30V19.873C10.5996 19.0303 10.9668 18.2296 11.6045 17.6787L19.6045 10.7695Z" fill="#858585" stroke="#D1D1D1" stroke-width="0.2"/>
</svg>
