<svg width="21" height="20" viewBox="0 0 21 20" fill="none" xmlns="http://www.w3.org/2000/svg">
<g clip-path="url(#clip0_256_349)">
<path d="M19.8448 11.8333C19.997 11.6782 20.0825 11.4698 20.0832 11.2525V11.2475C20.0825 11.0274 19.9947 10.8165 19.839 10.6608L16.5057 7.3275C16.4288 7.2479 16.3368 7.18442 16.2352 7.14075C16.1335 7.09707 16.0242 7.07408 15.9135 7.07312C15.8029 7.07216 15.6931 7.09324 15.5907 7.13514C15.4883 7.17705 15.3953 7.23892 15.317 7.31717C15.2388 7.39541 15.1769 7.48845 15.135 7.59087C15.0931 7.69328 15.072 7.80301 15.073 7.91366C15.0739 8.02431 15.0969 8.13366 15.1406 8.23533C15.1843 8.337 15.2477 8.42896 15.3273 8.50583L17.2382 10.4167H9.24984C9.02882 10.4167 8.81686 10.5045 8.66058 10.6607C8.5043 10.817 8.4165 11.029 8.4165 11.25C8.4165 11.471 8.5043 11.683 8.66058 11.8393C8.81686 11.9955 9.02882 12.0833 9.24984 12.0833H17.2382L15.3273 13.9942C15.1755 14.1513 15.0915 14.3618 15.0934 14.5803C15.0953 14.7988 15.183 15.0078 15.3375 15.1623C15.492 15.3169 15.701 15.4045 15.9195 15.4064C16.138 15.4083 16.3485 15.3243 16.5057 15.1725L19.839 11.8392L19.8448 11.8333Z" fill="white"/>
<path fill-rule="evenodd" clip-rule="evenodd" d="M10.9167 17.9167C10.9167 17.6957 10.8289 17.4837 10.6726 17.3274C10.5163 17.1711 10.3043 17.0833 10.0833 17.0833H5.91667V5.41667H10.0833C10.3043 5.41667 10.5163 5.32887 10.6726 5.17259C10.8289 5.01631 10.9167 4.80435 10.9167 4.58333C10.9167 4.36232 10.8289 4.15036 10.6726 3.99408C10.5163 3.8378 10.3043 3.75 10.0833 3.75H5.91667C5.47464 3.75 5.05072 3.92559 4.73816 4.23816C4.42559 4.55072 4.25 4.97464 4.25 5.41667V17.0833C4.25 17.5254 4.42559 17.9493 4.73816 18.2618C5.05072 18.5744 5.47464 18.75 5.91667 18.75H10.0833C10.3043 18.75 10.5163 18.6622 10.6726 18.5059C10.8289 18.3496 10.9167 18.1377 10.9167 17.9167Z" fill="white"/>
</g>
<defs>
<clipPath id="clip0_256_349">
<rect width="20" height="20" fill="white" transform="translate(0.5)"/>
</clipPath>
</defs>
</svg>
