<svg width="61" height="61" viewBox="0 0 61 61" fill="none" xmlns="http://www.w3.org/2000/svg">
<rect x="2.5" y="2.33331" width="56" height="56" rx="28" fill="white"/>
<rect x="2.5" y="2.33331" width="56" height="56" rx="28" stroke="#F5F5F5" stroke-width="4"/>
<path d="M37.0873 32.5303L36.7542 32.1556C36.5461 31.9474 31.6747 26.2017 31.6747 22.746C31.6747 19.7482 34.0896 17.3333 37.0873 17.3333C40.0851 17.3333 42.5 19.7482 42.5 22.746C42.5 26.2017 37.6286 31.9474 37.4204 32.1973L37.0873 32.5303ZM37.0873 18.166C34.5475 18.166 32.5074 20.2062 32.5074 22.746C32.5074 25.4106 36.0048 29.9073 37.0873 31.2396C38.1699 29.9073 41.6673 25.4106 41.6673 22.746C41.6673 20.2062 39.6271 18.166 37.0873 18.166Z" fill="#FF2E39"/>
<path d="M37.0873 18.166C34.5475 18.166 32.5074 20.2062 32.5074 22.746C32.5074 25.4106 36.0048 29.9073 37.0873 31.2396C38.1699 29.9073 41.6673 25.4106 41.6673 22.746C41.6673 20.2062 39.6271 18.166 37.0873 18.166Z" fill="#FF2E39"/>
<path d="M35.0056 22.7459C35.0056 23.9117 35.9216 24.8277 37.0874 24.8277C38.2532 24.8277 39.1692 23.9117 39.1692 22.7459C39.1692 21.5801 38.2532 20.6641 37.0874 20.6641C35.9216 20.6641 35.0056 21.5801 35.0056 22.7459Z" fill="white"/>
<path d="M25.935 24.5006L18.5 27.4746V41.9727C19.271 42.7159 21.2946 41.9283 25.935 39.7422V24.5006Z" fill="#248078"/>
<path d="M31.1394 25.9876L27.4219 24.5006V39.7422L33.3699 42.1753V30.0768L31.1394 25.9876Z" fill="#248078"/>
<path d="M34.8569 31.9356V42.3445C39.5287 40.6845 41.9114 39.801 42.2919 38.9988V27.8463C38.7427 33.202 37.1042 34.3266 34.8569 31.9356Z" fill="#248078"/>
<path d="M25.935 24.5006L18.5 27.4746V41.9727C19.271 42.7159 21.2946 41.9283 25.935 39.7422V24.5006Z" stroke="#D1D1D1" stroke-width="0.2"/>
<path d="M31.1394 25.9876L27.4219 24.5006V39.7422L33.3699 42.1753V30.0768L31.1394 25.9876Z" stroke="#D1D1D1" stroke-width="0.2"/>
<path d="M34.8569 31.9356V42.3445C39.5287 40.6845 41.9114 39.801 42.2919 38.9988V27.8463C38.7427 33.202 37.1042 34.3266 34.8569 31.9356Z" stroke="#D1D1D1" stroke-width="0.2"/>
</svg>
