<svg width="60" height="61" viewBox="0 0 60 61" fill="none" xmlns="http://www.w3.org/2000/svg">
<rect x="2" y="2.33331" width="56" height="56" rx="28" fill="white"/>
<rect x="2" y="2.33331" width="56" height="56" rx="28" stroke="#F5F5F5" stroke-width="4"/>
<path d="M36.5873 32.5304L36.2542 32.1556C36.0461 31.9475 31.1747 26.2017 31.1747 22.746C31.1747 19.7482 33.5896 17.3333 36.5873 17.3333C39.5851 17.3333 42 19.7482 42 22.746C42 26.2017 37.1286 31.9475 36.9204 32.1973L36.5873 32.5304ZM36.5873 18.166C34.0476 18.166 32.0074 20.2062 32.0074 22.746C32.0074 25.4107 35.5048 29.9073 36.5873 31.2397C37.6699 29.9073 41.1673 25.4107 41.1673 22.746C41.1673 20.2062 39.1271 18.166 36.5873 18.166Z" fill="#FF9CA1"/>
<path d="M36.5873 18.166C34.0476 18.166 32.0074 20.2062 32.0074 22.746C32.0074 25.4107 35.5048 29.9073 36.5873 31.2397C37.6699 29.9073 41.1673 25.4107 41.1673 22.746C41.1673 20.2062 39.1271 18.166 36.5873 18.166Z" fill="#FF9CA1"/>
<path d="M34.5056 22.746C34.5056 23.9118 35.4216 24.8278 36.5874 24.8278C37.7532 24.8278 38.6692 23.9118 38.6692 22.746C38.6692 21.5802 37.7532 20.6642 36.5874 20.6642C35.4216 20.6642 34.5056 21.5802 34.5056 22.746Z" fill="white"/>
<path d="M25.435 24.5006L18 27.4746V41.9728C18.771 42.7159 20.7946 41.9283 25.435 39.7423V24.5006Z" fill="#858585"/>
<path d="M30.6394 25.9876L26.922 24.5006V39.7423L32.8699 42.1754V30.0768L30.6394 25.9876Z" fill="#858585"/>
<path d="M34.3569 31.9356V42.3445C39.0288 40.6845 41.4114 39.801 41.7919 38.9988V27.8463C38.2427 33.2021 36.6042 34.3266 34.3569 31.9356Z" fill="#858585"/>
<path d="M25.435 24.5006L18 27.4746V41.9728C18.771 42.7159 20.7946 41.9283 25.435 39.7423V24.5006Z" stroke="#D1D1D1" stroke-width="0.2"/>
<path d="M30.6394 25.9876L26.922 24.5006V39.7423L32.8699 42.1754V30.0768L30.6394 25.9876Z" stroke="#D1D1D1" stroke-width="0.2"/>
<path d="M34.3569 31.9356V42.3445C39.0288 40.6845 41.4114 39.801 41.7919 38.9988V27.8463C38.2427 33.2021 36.6042 34.3266 34.3569 31.9356Z" stroke="#D1D1D1" stroke-width="0.2"/>
</svg>
