<svg width="42" height="43" viewBox="0 0 42 43" fill="none" xmlns="http://www.w3.org/2000/svg">
<path d="M21.0244 34.567C24.452 34.567 26.2421 34.5643 27.2822 34.5309C28.3187 34.4975 28.6022 34.4332 29.0176 34.3102H29.0186C29.7511 34.1041 30.6253 33.4722 31.1748 32.7525V32.7516C31.2769 32.6204 31.3955 32.396 31.5078 32.1246C31.5915 31.9222 31.6701 31.6973 31.7354 31.4732L31.7959 31.2506C31.8946 30.8477 31.9212 30.0506 31.8838 29.1734C31.8511 28.4084 31.7704 27.5941 31.6514 26.9478L31.5977 26.6822C31.5579 26.5072 31.4877 26.1678 31.4404 25.9312C31.3824 25.6409 31.3332 25.4605 31.2363 25.19L31.1211 24.8824C31.0211 24.6171 30.8111 24.1899 30.5938 23.7906C30.3753 23.3894 30.1569 23.0295 30.042 22.8922C29.6398 22.4119 29.2822 22.0748 28.8789 21.8189C28.4755 21.5631 28.0202 21.3853 27.4189 21.2291C27.0701 21.1381 26.565 21.1121 26.1455 21.1402C25.9362 21.1543 25.7542 21.1817 25.627 21.2184C25.5626 21.2369 25.5179 21.2559 25.4922 21.273C25.4794 21.2816 25.4753 21.2867 25.4746 21.2877C25.4687 21.3457 25.4291 21.3838 25.4004 21.4019C25.365 21.4242 25.3209 21.4371 25.2754 21.4371C25.2744 21.4372 25.2672 21.4376 25.2529 21.442C25.2383 21.4465 25.2201 21.4542 25.2002 21.4635C25.1601 21.4823 25.1182 21.508 25.0859 21.5338L25.083 21.5348L24.8789 21.6822C24.3624 22.0381 23.5954 22.4661 23.1641 22.6217H23.165C22.6531 22.8146 22.3361 22.924 22.0332 22.984C21.7291 23.0442 21.4421 23.0543 20.9922 23.0543C20.5403 23.0503 20.2073 23.0283 19.8877 22.9644C19.6478 22.9165 19.4174 22.8448 19.1514 22.7418L18.8711 22.6275C18.764 22.5816 18.5934 22.5204 18.4941 22.4898V22.4889C18.453 22.4783 18.3984 22.454 18.3418 22.4254C18.2774 22.3928 18.1984 22.3492 18.1113 22.2984C18.0241 22.2476 17.9274 22.1889 17.8262 22.1256L17.5146 21.9254C17.3024 21.7878 17.1023 21.6625 16.9492 21.5719C16.8726 21.5265 16.809 21.4898 16.7617 21.4654C16.738 21.4532 16.7197 21.4453 16.707 21.44C16.7006 21.4374 16.6967 21.4365 16.6953 21.4361C16.6605 21.434 16.6235 21.4247 16.5918 21.4029C16.5577 21.3795 16.5312 21.3412 16.5254 21.2926C16.5225 21.29 16.5176 21.2849 16.5078 21.2789C16.4787 21.2611 16.4299 21.2415 16.3613 21.2223C16.2258 21.1843 16.0348 21.1548 15.8223 21.1373C15.3937 21.1021 14.9073 21.1193 14.6426 21.2037H14.6416C14.5117 21.2443 14.2804 21.3131 14.1289 21.3609V21.3619C13.4842 21.5615 12.9929 21.8671 12.4268 22.4332C12.1069 22.753 11.927 22.9412 11.7725 23.1529C11.6951 23.259 11.6232 23.3713 11.5439 23.5103L11.2695 24.025C10.7528 25.0235 10.374 26.5365 10.2021 28.0162C10.03 29.4986 10.0688 30.9244 10.3682 31.7535V31.7545C10.738 32.7945 11.4761 33.6182 12.4287 34.0719L12.4297 34.0709C12.7038 34.2 12.8901 34.2923 13.1387 34.3609C13.3875 34.4296 13.7034 34.4755 14.2305 34.5064C15.2866 34.5683 17.1696 34.567 21.0244 34.567Z" fill="#858585" stroke="#D1D1D1" stroke-width="0.2"/>
<path d="M20.8903 8.45392C24.4193 8.45404 27.2799 11.3155 27.2799 14.8445C27.2798 18.3735 24.4192 21.2341 20.8903 21.2342C17.3612 21.2342 14.4998 18.3735 14.4996 14.8445C14.4996 11.3154 17.3612 8.45392 20.8903 8.45392Z" fill="#858585" stroke="#D1D1D1" stroke-width="0.2"/>
</svg>
