<svg width="24" height="24" viewBox="0 0 24 24" fill="none" xmlns="http://www.w3.org/2000/svg">
<path d="M12.2087 8.91964C11.7866 8.91964 11.3686 9.00278 10.9786 9.16432C10.5887 9.32585 10.2343 9.56261 9.93586 9.86109C9.63738 10.1596 9.40062 10.5139 9.23909 10.9039C9.07756 11.2938 8.99442 11.7118 8.99442 12.1339C8.99442 12.556 9.07756 12.974 9.23909 13.364C9.40062 13.754 9.63738 14.1083 9.93586 14.4068C10.2343 14.7052 10.5887 14.942 10.9786 15.1035C11.3686 15.2651 11.7866 15.3482 12.2087 15.3482C13.0612 15.3482 13.8787 15.0096 14.4815 14.4068C15.0843 13.804 15.423 12.9864 15.423 12.1339C15.423 11.2814 15.0843 10.4639 14.4815 9.86109C13.8787 9.25829 13.0612 8.91964 12.2087 8.91964ZM10.0658 12.1339C10.0658 11.8525 10.1213 11.5739 10.229 11.3139C10.3366 11.0539 10.4945 10.8177 10.6935 10.6187C10.8925 10.4197 11.1287 10.2619 11.3887 10.1542C11.6486 10.0465 11.9273 9.99107 12.2087 9.99107C12.4901 9.99107 12.7688 10.0465 13.0287 10.1542C13.2887 10.2619 13.5249 10.4197 13.7239 10.6187C13.9229 10.8177 14.0808 11.0539 14.1884 11.3139C14.2961 11.5739 14.3516 11.8525 14.3516 12.1339C14.3516 12.7022 14.1258 13.2473 13.7239 13.6492C13.3221 14.051 12.777 14.2768 12.2087 14.2768C11.6404 14.2768 11.0953 14.051 10.6935 13.6492C10.2916 13.2473 10.0658 12.7022 10.0658 12.1339ZM17.7158 18.1304L16.4816 17.5882C16.3059 17.5119 16.1148 17.4777 15.9236 17.4884C15.7323 17.499 15.5462 17.5543 15.3801 17.6496C15.0466 17.8425 14.8337 18.1832 14.7916 18.5668L14.643 19.9096C14.6283 20.0447 14.5722 20.1719 14.4822 20.2737C14.3923 20.3755 14.273 20.447 14.1408 20.4782C12.87 20.7803 11.546 20.7803 10.2751 20.4782C10.1431 20.4468 10.0239 20.3753 9.93416 20.2735C9.84438 20.1717 9.78832 20.0446 9.7737 19.9096L9.62513 18.5689C9.60385 18.3802 9.53861 18.1992 9.43466 18.0402C9.3307 17.8813 9.19093 17.749 9.02656 17.6539C8.86228 17.5593 8.67813 17.5045 8.48885 17.4938C8.29957 17.4831 8.11043 17.5169 7.93656 17.5925L6.70227 18.1346C6.5775 18.1895 6.43877 18.2041 6.30529 18.1766C6.17182 18.1491 6.0502 18.0808 5.95727 17.9811C5.06961 17.0285 4.40863 15.8878 4.0237 14.6439C3.98288 14.5132 3.98393 14.373 4.0267 14.2428C4.06948 14.1127 4.15184 13.9992 4.26227 13.9182L5.35299 13.1125C5.50654 12.9997 5.63138 12.8523 5.71744 12.6823C5.80349 12.5123 5.84832 12.3245 5.84832 12.1339C5.84832 11.9434 5.80349 11.7555 5.71744 11.5855C5.63138 11.4155 5.50654 11.2682 5.35299 11.1554L4.26227 10.3518C4.15169 10.2707 4.06924 10.1571 4.02646 10.0268C3.98368 9.89658 3.98271 9.7562 4.0237 9.62536C4.40863 8.38228 5.07019 7.24256 5.9587 6.29179C6.05171 6.19222 6.17337 6.12402 6.30684 6.09663C6.44031 6.06925 6.579 6.08403 6.7037 6.13893L7.93227 6.67964C8.10708 6.75488 8.29708 6.78815 8.48705 6.77679C8.67702 6.76544 8.8617 6.70977 9.0263 6.61424C9.1909 6.51872 9.33086 6.38599 9.43497 6.22667C9.53907 6.06736 9.60444 5.88589 9.62584 5.69679L9.77584 4.35536C9.79064 4.21878 9.84786 4.09028 9.93947 3.98791C10.0311 3.88554 10.1525 3.81445 10.2866 3.78464C10.9151 3.64464 11.5589 3.5706 12.218 3.5625C12.8623 3.56964 13.5037 3.64464 14.1323 3.78464C14.2665 3.8145 14.3879 3.88569 14.4796 3.9882C14.5712 4.09071 14.6283 4.21937 14.643 4.35607L14.7923 5.6975C14.8243 5.99505 14.9651 6.27028 15.1876 6.47039C15.4101 6.6705 15.6987 6.78139 15.998 6.78179C16.1644 6.78179 16.3294 6.74679 16.4837 6.67893L17.7123 6.13821C17.837 6.08331 17.9757 6.06853 18.1091 6.09592C18.2426 6.12331 18.3643 6.1915 18.4573 6.29107C19.3455 7.24191 20.0068 8.38163 20.3916 9.62464C20.4325 9.75531 20.4315 9.89549 20.3889 10.0256C20.3462 10.1557 20.264 10.2692 20.1537 10.3504L19.0644 11.1554C18.7537 11.3839 18.5658 11.7475 18.5658 12.1339C18.5658 12.5196 18.7537 12.8832 19.0651 13.1125L20.1551 13.9168C20.3808 14.0839 20.4766 14.3754 20.3937 14.6432C20.0083 15.8858 19.3473 17.0253 18.4601 17.9768C18.3672 18.0765 18.2456 18.1448 18.1121 18.1723C17.9786 18.1998 17.8406 18.1852 17.7158 18.1304ZM13.8244 17.9889C13.9947 17.4551 14.3575 17.0037 14.8423 16.7225C15.154 16.5429 15.5036 16.4389 15.8629 16.4189C16.2221 16.3989 16.5811 16.4635 16.9108 16.6075L17.8708 17.0289C18.487 16.3146 18.9642 15.4914 19.278 14.6018L18.4287 13.9754C18.1393 13.7633 17.9038 13.4855 17.7414 13.1655C17.5789 12.8456 17.4941 12.492 17.4937 12.1332C17.4937 11.3996 17.8487 10.7189 18.4273 10.2932L18.4287 10.2925L19.2766 9.66607C18.9625 8.77663 18.485 7.95369 17.8687 7.23964L16.9166 7.65821L16.9151 7.65893C16.6251 7.7875 16.313 7.85321 15.9966 7.85321C15.4338 7.85268 14.8909 7.64453 14.4721 7.26864C14.0532 6.89275 13.7878 6.37553 13.7266 5.81607V5.81464L13.6101 4.77179C13.1506 4.68629 12.6846 4.64017 12.2173 4.63393C11.7363 4.6406 11.2661 4.68655 10.8066 4.77179L10.6901 5.81536C10.6501 6.17138 10.527 6.51304 10.3309 6.81289C10.1348 7.11273 9.87115 7.3624 9.56105 7.54184C9.25095 7.72127 8.90308 7.82547 8.5454 7.84605C8.18772 7.86663 7.8302 7.80303 7.50156 7.66036L6.54727 7.24036C5.93094 7.95441 5.45346 8.77734 5.13942 9.66679L5.98942 10.2932C6.27809 10.5056 6.51277 10.7829 6.67451 11.1027C6.83625 11.4225 6.92053 11.7759 6.92053 12.1343C6.92053 12.4927 6.83625 12.846 6.67451 13.1659C6.51277 13.4857 6.27809 13.763 5.98942 13.9754L5.13942 14.6025C5.45276 15.4934 5.93002 16.3178 6.54656 17.0332L7.50727 16.6118C7.83498 16.4687 8.19169 16.4045 8.54873 16.4244C8.90576 16.4442 9.25315 16.5475 9.56299 16.7261C9.87257 16.9049 10.1359 17.1539 10.3318 17.453C10.5276 17.7521 10.6506 18.093 10.6908 18.4482V18.4518L10.8066 19.4975C11.733 19.6796 12.6851 19.6796 13.6116 19.4975L13.7273 18.4496C13.7444 18.2915 13.7773 18.138 13.8258 17.9889" fill="white"/>
</svg>
