<svg width="24" height="24" viewBox="0 0 24 24" fill="none" xmlns="http://www.w3.org/2000/svg">
<g clip-path="url(#clip0_556_175)">
<path d="M6.0001 3.6C5.36358 3.6 4.75313 3.85285 4.30304 4.30294C3.85295 4.75303 3.6001 5.36348 3.6001 6V18C3.6001 18.6365 3.85295 19.247 4.30304 19.6971C4.75313 20.1471 5.36358 20.4 6.0001 20.4H9.6049C9.6129 20.2632 9.6345 20.1244 9.6697 19.9836L9.8653 19.2H7.2001V13.8C7.2001 13.6409 7.26331 13.4883 7.37583 13.3757C7.48836 13.2632 7.64097 13.2 7.8001 13.2H14.3329L15.5329 12H7.8001C7.32271 12 6.86487 12.1896 6.52731 12.5272C6.18974 12.8648 6.0001 13.3226 6.0001 13.8V19.2C5.68184 19.2 5.37661 19.0736 5.15157 18.8485C4.92653 18.6235 4.8001 18.3183 4.8001 18V6C4.8001 5.68174 4.92653 5.37651 5.15157 5.15147C5.37661 4.92643 5.68184 4.8 6.0001 4.8H7.2001V7.8C7.2001 8.27739 7.38974 8.73523 7.72731 9.07279C8.06487 9.41036 8.52271 9.6 9.0001 9.6H13.8001C14.2775 9.6 14.7353 9.41036 15.0729 9.07279C15.4105 8.73523 15.6001 8.27739 15.6001 7.8V4.8H16.0549C16.3731 4.80007 16.6783 4.92654 16.9033 5.1516L18.8485 7.0968C19.0736 7.32179 19.2 7.62696 19.2001 7.9452V9.6036C19.6061 9.58512 20.0123 9.63792 20.4001 9.7596V7.9464C20.4 7.30993 20.147 6.69958 19.6969 6.2496L17.7517 4.3044C17.529 4.08131 17.2645 3.90427 16.9734 3.78341C16.6822 3.66255 16.3701 3.60022 16.0549 3.6H6.0001ZM8.4001 7.8V4.8H14.4001V7.8C14.4001 7.95913 14.3369 8.11174 14.2244 8.22426C14.1118 8.33678 13.9592 8.4 13.8001 8.4H9.0001C8.84097 8.4 8.68836 8.33678 8.57583 8.22426C8.46331 8.11174 8.4001 7.95913 8.4001 7.8ZM17.7721 11.4576L11.9761 17.2536C11.6384 17.5913 11.3987 18.0144 11.2825 18.4776L10.8325 20.2752C10.7881 20.454 10.7907 20.6412 10.8401 20.8187C10.8895 20.9961 10.9839 21.1578 11.1142 21.288C11.2445 21.4182 11.4063 21.5125 11.5838 21.5617C11.7613 21.6109 11.9486 21.6133 12.1273 21.5688L13.9249 21.12C14.3881 21.0038 14.8111 20.7641 15.1489 20.4264L20.9449 14.6304C21.3603 14.2084 21.592 13.6393 21.5896 13.0472C21.5872 12.455 21.3508 11.8879 20.9321 11.4692C20.5133 11.0506 19.946 10.8145 19.3539 10.8123C18.7617 10.8101 18.1928 11.0421 17.7709 11.4576" fill="#FAFFFD"/>
</g>
<defs>
<clipPath id="clip0_556_175">
<rect width="24" height="24" fill="white"/>
</clipPath>
</defs>
</svg>
