<svg width="24" height="24" viewBox="0 0 24 24" fill="none" xmlns="http://www.w3.org/2000/svg">
<g clip-path="url(#clip0_574_2332)">
<path d="M8.54981 1.443C8.34217 1.23281 8.07673 1.0891 7.78722 1.03012C7.49771 0.971148 7.1972 0.999578 6.92388 1.1118C6.65057 1.22402 6.41679 1.41496 6.25225 1.66036C6.08771 1.90576 5.99984 2.19454 5.99981 2.49V5.5H4.62381C4.51855 5.49996 4.41446 5.52208 4.31831 5.56492C4.22215 5.60776 4.1361 5.67036 4.06573 5.74865C3.99537 5.82694 3.94227 5.91916 3.90989 6.01932C3.87752 6.11948 3.86659 6.22534 3.87781 6.33L5.35981 19.994C5.41993 20.5451 5.68138 21.0546 6.09402 21.4248C6.50667 21.795 7.04145 21.9998 7.59581 22H16.4038C16.9587 22 17.4939 21.795 17.9068 21.4244C18.3197 21.0538 18.5811 20.5436 18.6408 19.992L20.1178 6.33C20.1292 6.22534 20.1184 6.11946 20.0861 6.01925C20.0539 5.91904 20.0009 5.82674 19.9306 5.74835C19.8604 5.66997 19.7744 5.60726 19.6783 5.56429C19.5822 5.52133 19.4781 5.49909 19.3728 5.499H17.9998V2.75C17.9998 2.28587 17.8154 1.84075 17.4873 1.51256C17.1591 1.18437 16.7139 1 16.2498 1H12.7498C12.2857 1 11.8406 1.18437 11.5124 1.51256C11.1842 1.84075 10.9998 2.28587 10.9998 2.75V3.92L8.54981 1.443ZM16.4998 2.75V5.5H12.4998V2.75C12.4998 2.6837 12.5262 2.62011 12.573 2.57322C12.6199 2.52634 12.6835 2.5 12.7498 2.5H16.2498C16.3161 2.5 16.3797 2.52634 16.4266 2.57322C16.4735 2.62011 16.4998 2.6837 16.4998 2.75ZM10.4528 5.5H7.49981V2.514L10.4528 5.5ZM11.7928 10.41L11.1228 11.41C11.0685 11.493 10.9983 11.5643 10.9162 11.62C10.8341 11.6756 10.7418 11.7144 10.6446 11.7342C10.5474 11.7539 10.4473 11.7542 10.35 11.735C10.2527 11.7157 10.1602 11.6774 10.0778 11.6222C9.99543 11.567 9.92482 11.496 9.87005 11.4133C9.81529 11.3307 9.77747 11.2379 9.75878 11.1406C9.74009 11.0432 9.74089 10.943 9.76115 10.846C9.78142 10.7489 9.82073 10.6568 9.87681 10.575L10.5458 9.575C10.7057 9.33595 10.9221 9.14001 11.1758 9.0045C11.4295 8.86899 11.7127 8.7981 12.0003 8.7981C12.2879 8.7981 12.5711 8.86899 12.8248 9.0045C13.0785 9.14001 13.2949 9.33595 13.4548 9.575L14.1238 10.575C14.2344 10.7404 14.2748 10.9429 14.2361 11.138C14.1973 11.3331 14.0827 11.5049 13.9173 11.6155C13.752 11.7261 13.5494 11.7665 13.3543 11.7277C13.1592 11.689 12.9874 11.5744 12.8768 11.409L12.2078 10.409C12.1849 10.375 12.1541 10.3471 12.1179 10.3278C12.0817 10.3085 12.0413 10.2984 12.0003 10.2984C11.9593 10.2984 11.9189 10.3085 11.8828 10.3278C11.8466 10.3471 11.8157 10.376 11.7928 10.41ZM9.89281 13.627L9.52881 14.234C9.4833 14.31 9.45877 14.3966 9.45774 14.4852C9.45671 14.5737 9.47922 14.661 9.52295 14.738C9.56669 14.815 9.63009 14.879 9.70667 14.9234C9.78325 14.9679 9.87026 14.9912 9.95881 14.991H10.7498C10.9487 14.991 11.1395 15.07 11.2801 15.2107C11.4208 15.3513 11.4998 15.5421 11.4998 15.741C11.4998 15.9399 11.4208 16.1307 11.2801 16.2713C11.1395 16.412 10.9487 16.491 10.7498 16.491H9.95782C8.40381 16.491 7.44281 14.795 8.24281 13.462L8.60681 12.855C8.65751 12.7705 8.72434 12.6968 8.80351 12.6381C8.88268 12.5795 8.97264 12.5369 9.06823 12.513C9.16383 12.4891 9.2632 12.4843 9.36068 12.4988C9.45815 12.5133 9.55181 12.5468 9.63631 12.5975C9.72082 12.6482 9.79451 12.715 9.85319 12.7942C9.91186 12.8734 9.95437 12.9633 9.97828 13.0589C10.0022 13.1545 10.007 13.2539 9.99255 13.3514C9.97805 13.4488 9.94451 13.5425 9.89382 13.627M14.3678 12.597C14.4524 12.5462 14.5462 12.5127 14.6438 12.4982C14.7414 12.4838 14.8409 12.4887 14.9366 12.5128C15.0322 12.5368 15.1222 12.5795 15.2014 12.6384C15.2805 12.6973 15.3473 12.7713 15.3978 12.856L15.7608 13.463C16.5598 14.796 15.5988 16.491 14.0448 16.491H13.2508C13.0519 16.491 12.8611 16.412 12.7205 16.2713C12.5798 16.1307 12.5008 15.9399 12.5008 15.741C12.5008 15.5421 12.5798 15.3513 12.7205 15.2107C12.8611 15.07 13.0519 14.991 13.2508 14.991H14.0448C14.1334 14.9912 14.2204 14.9679 14.297 14.9234C14.3735 14.879 14.4369 14.815 14.4807 14.738C14.5244 14.661 14.5469 14.5737 14.5459 14.4852C14.5449 14.3966 14.5203 14.31 14.4748 14.234L14.1098 13.627C14.059 13.5425 14.0254 13.4487 14.0109 13.3512C13.9963 13.2536 14.0012 13.1542 14.0252 13.0585C14.0491 12.9628 14.0917 12.8728 14.1505 12.7936C14.2093 12.7144 14.2832 12.6476 14.3678 12.597Z" fill="#858585"/>
</g>
<defs>
<clipPath id="clip0_574_2332">
<rect width="24" height="24" fill="white"/>
</clipPath>
</defs>
</svg>
