<svg width="18" height="18" viewBox="0 0 18 18" fill="none" xmlns="http://www.w3.org/2000/svg">
<g clip-path="url(#clip0_416_837)">
<path d="M2.25 5.0625C2.25 4.31658 2.54632 3.60121 3.07376 3.07376C3.60121 2.54632 4.31658 2.25 5.0625 2.25H12.9375C13.6834 2.25 14.3988 2.54632 14.9262 3.07376C15.4537 3.60121 15.75 4.31658 15.75 5.0625V12.9375C15.75 13.6834 15.4537 14.3988 14.9262 14.9262C14.3988 15.4537 13.6834 15.75 12.9375 15.75H5.0625C4.31658 15.75 3.60121 15.4537 3.07376 14.9262C2.54632 14.3988 2.25 13.6834 2.25 12.9375V5.0625ZM5.0625 3.375C4.61495 3.375 4.18572 3.55279 3.86926 3.86926C3.55279 4.18572 3.375 4.61495 3.375 5.0625V12.9375C3.375 13.3851 3.55279 13.8143 3.86926 14.1307C4.18572 14.4472 4.61495 14.625 5.0625 14.625H12.9375C13.3851 14.625 13.8143 14.4472 14.1307 14.1307C14.4472 13.8143 14.625 13.3851 14.625 12.9375V5.0625C14.625 4.61495 14.4472 4.18572 14.1307 3.86926C13.8143 3.55279 13.3851 3.375 12.9375 3.375H5.0625Z" fill="#474747"/>
</g>
<defs>
<clipPath id="clip0_416_837">
<rect width="18" height="18" fill="white"/>
</clipPath>
</defs>
</svg>
